<svg width="777" height="184" viewBox="0 0 777 184" fill="none" xmlns="http://www.w3.org/2000/svg">
<mask id="path-1-outside-1_1_66" maskUnits="userSpaceOnUse" x="0" y="34.7999" width="777" height="149" fill="black">
<rect fill="white" y="34.7999" width="777" height="149"/>
<path d="M93 147.6C93 152.4 91.8 156.8 89.4 160.8C87 164.8 83.8 168 79.8 170.4C75.8 172.8 71.4 174 66.6 174H30.6C25.8 174 21.3333 172.8 17.2 170.4C13.2 168 10 164.8 7.6 160.8C5.2 156.8 4 152.4 4 147.6V65.3999C4 60.4666 5.2 55.9999 7.6 51.9999C10 47.9999 13.2 44.7999 17.2 42.3999C21.3333 39.9999 25.8 38.7999 30.6 38.7999H66.6C71.4 38.7999 75.8 39.9999 79.8 42.3999C83.8 44.7999 87 47.9999 89.4 51.9999C91.8 55.9999 93 60.4666 93 65.3999V70.7999C93 73.3333 92.1333 75.4666 90.4 77.1999C88.6667 78.9333 86.4667 79.7999 83.8 79.7999H78.4C75.8667 79.7999 73.6667 78.9333 71.8 77.1999C70.0667 75.4666 69.2 73.3333 69.2 70.7999V65.3999C69.2 63.5333 68.3333 62.5999 66.6 62.5999H30.6C28.8667 62.5999 28 63.5333 28 65.3999V147.6C28 148.267 28.2667 148.933 28.8 149.6C29.3333 150.133 29.9333 150.4 30.6 150.4H66.6C67.2667 150.4 67.8667 150.133 68.4 149.6C68.9333 148.933 69.2 148.267 69.2 147.6V141.6C69.2 139.067 70.0667 136.933 71.8 135.2C73.6667 133.333 75.8667 132.4 78.4 132.4H83.8C86.4667 132.4 88.6667 133.333 90.4 135.2C92.1333 136.933 93 139.067 93 141.6V147.6Z"/>
<path d="M194.12 167.4C194.12 169.933 193.187 172.133 191.32 174C189.587 175.733 187.52 176.6 185.12 176.6H116.32C113.92 176.6 111.787 175.733 109.92 174C108.187 172.133 107.32 169.933 107.32 167.4V50.6C107.32 47.9333 108.187 45.7333 109.92 44C111.787 42.2666 113.92 41.4 116.32 41.4H121.92C124.454 41.4 126.587 42.2666 128.32 44C130.187 45.7333 131.12 47.9333 131.12 50.6V150.4C131.12 152.133 131.92 153 133.52 153H185.12C187.52 153 189.587 153.867 191.32 155.6C193.187 157.333 194.12 159.533 194.12 162.2V167.4Z"/>
<path d="M295.2 167.618C295.2 170.151 294.267 172.351 292.4 174.218C290.667 175.951 288.6 176.818 286.2 176.818H217.4C215 176.818 212.867 175.951 211 174.218C209.267 172.351 208.4 170.151 208.4 167.618V50.8177C208.4 48.151 209.267 45.951 211 44.2177C212.867 42.4843 215 41.6177 217.4 41.6177H286.2C288.6 41.6177 290.667 42.4843 292.4 44.2177C294.267 45.951 295.2 48.151 295.2 50.8177V56.2177C295.2 58.751 294.267 60.951 292.4 62.8177C290.667 64.551 288.6 65.4177 286.2 65.4177H234.6C233 65.4177 232.2 66.2844 232.2 68.0177V94.6177C232.2 96.4844 233 97.4177 234.6 97.4177H279C281.667 97.4177 283.867 98.2843 285.6 100.018C287.333 101.751 288.2 103.884 288.2 106.418V112.018C288.2 114.551 287.333 116.751 285.6 118.618C283.867 120.351 281.667 121.218 279 121.218H234.6C233 121.218 232.2 122.018 232.2 123.618V150.618C232.2 152.351 233 153.218 234.6 153.218H286.2C288.6 153.218 290.667 154.084 292.4 155.818C294.267 157.551 295.2 159.751 295.2 162.418V167.618Z"/>
<path d="M412 167.2C412.8 170.267 412.333 173.067 410.6 175.6C408.867 178 406.4 179.2 403.2 179.2H397.4C395.533 179.2 393.733 178.6 392 177.4C390.4 176.2 389.267 174.733 388.6 173L381 150C380.467 148.267 379.333 147.4 377.6 147.4H343.4C341.667 147.4 340.533 148.267 340 150L332.4 173C331.733 174.733 330.6 176.2 329 177.4C327.4 178.6 325.6 179.2 323.6 179.2H317.8C314.6 179.2 312.133 178 310.4 175.6C308.533 172.933 308.133 170.133 309.2 167.2L348 50.2C348.667 48.3333 349.733 46.8666 351.2 45.8C352.8 44.6 354.533 44 356.4 44H364.6C366.467 44 368.2 44.6 369.8 45.8C371.4 46.8666 372.467 48.3333 373 50.2L412 167.2ZM371.6 121.2L361.6 90.6C360.933 89.6666 360.2 89.6666 359.4 90.6L349.4 121.2C349.133 121.867 349.2 122.467 349.6 123C350 123.533 350.533 123.8 351.2 123.8H369.8C370.467 123.8 371 123.533 371.4 123C371.8 122.467 371.867 121.867 371.6 121.2Z"/>
<path d="M517.8 167.4C517.8 169.933 516.867 172.133 515 174C513.267 175.733 511.133 176.6 508.6 176.6H502.8C499.2 176.6 496.533 175.067 494.8 172L452.2 98.2C451.933 97.6666 451.533 97.5333 451 97.7999C450.467 97.9333 450.2 98.2 450.2 98.6V167.4C450.2 169.933 449.267 172.133 447.4 174C445.667 175.733 443.6 176.6 441.2 176.6H435.6C433.067 176.6 430.867 175.733 429 174C427.267 172.133 426.4 169.933 426.4 167.4V50.6C426.4 47.9333 427.267 45.7333 429 44C430.867 42.2666 433.067 41.4 435.6 41.4H441.4C445 41.4 447.667 42.9333 449.4 46L492 119.8C492.4 120.333 492.8 120.533 493.2 120.4C493.733 120.267 494 119.933 494 119.4V50.6C494 47.9333 494.867 45.7333 496.6 44C498.467 42.2666 500.667 41.4 503.2 41.4H508.6C511.133 41.4 513.267 42.2666 515 44C516.867 45.7333 517.8 47.9333 517.8 50.6V167.4Z"/>
<path d="M625.299 95.4039C624.062 97.6175 623.444 102.923 623.444 111.322V141.595C623.444 150.775 618.691 158.75 609.186 165.521C599.355 172.618 587.311 176.166 573.053 176.166C553.262 176.166 537.474 169.948 525.69 157.513C514.297 145.664 508.6 130.56 508.6 112.201C508.6 92.6696 514.394 76.3935 525.983 63.3726C538.939 48.7242 556.777 41.4 579.499 41.4C594.668 41.4 606.68 44.3296 615.534 50.189L605 69.1343L604 71L602 70L600 69.1343C593.62 66.7255 586.627 65.814 579.596 65.814C572.63 65.814 566.51 66.9208 561.237 69.1343C556.028 71.3479 551.601 74.5054 547.956 78.607C540.273 87.0054 536.432 98.1058 536.432 111.908C536.432 123.952 539.818 133.62 546.588 140.912C553.359 148.138 562.083 151.752 572.76 151.752C584.544 151.752 592.487 148.692 596.588 142.572C597.89 140.619 598.542 138.405 598.542 135.931V119.72H585.944C579.173 119.72 575.495 120.306 574.909 121.478L574.616 121.381L573.737 95.8922C575.56 96.4131 582.949 96.6735 595.905 96.6735H607.428C614.59 96.6735 620.449 96.1852 625.006 95.2086L625.299 95.4039Z"/>
<path d="M634.301 41.7349C640.811 41.9953 644.75 42.1255 646.117 42.1255H653.148C656.599 42.1255 659.366 41.8651 661.449 41.3443L661.352 172.008H634.301V41.7349Z"/>
<path d="M674.367 172.283C674.758 170.069 674.953 167.66 674.953 165.056V42.3999H694.484L746.242 123.845V49.0405C746.242 45.4598 745.917 43.2463 745.266 42.3999H771.633C771.307 45.0041 771.145 47.8687 771.145 50.9937V172.283H750.832L699.855 94.0602V172.283H674.367Z"/>
</mask>
<path d="M93 147.6C93 152.4 91.8 156.8 89.4 160.8C87 164.8 83.8 168 79.8 170.4C75.8 172.8 71.4 174 66.6 174H30.6C25.8 174 21.3333 172.8 17.2 170.4C13.2 168 10 164.8 7.6 160.8C5.2 156.8 4 152.4 4 147.6V65.3999C4 60.4666 5.2 55.9999 7.6 51.9999C10 47.9999 13.2 44.7999 17.2 42.3999C21.3333 39.9999 25.8 38.7999 30.6 38.7999H66.6C71.4 38.7999 75.8 39.9999 79.8 42.3999C83.8 44.7999 87 47.9999 89.4 51.9999C91.8 55.9999 93 60.4666 93 65.3999V70.7999C93 73.3333 92.1333 75.4666 90.4 77.1999C88.6667 78.9333 86.4667 79.7999 83.8 79.7999H78.4C75.8667 79.7999 73.6667 78.9333 71.8 77.1999C70.0667 75.4666 69.2 73.3333 69.2 70.7999V65.3999C69.2 63.5333 68.3333 62.5999 66.6 62.5999H30.6C28.8667 62.5999 28 63.5333 28 65.3999V147.6C28 148.267 28.2667 148.933 28.8 149.6C29.3333 150.133 29.9333 150.4 30.6 150.4H66.6C67.2667 150.4 67.8667 150.133 68.4 149.6C68.9333 148.933 69.2 148.267 69.2 147.6V141.6C69.2 139.067 70.0667 136.933 71.8 135.2C73.6667 133.333 75.8667 132.4 78.4 132.4H83.8C86.4667 132.4 88.6667 133.333 90.4 135.2C92.1333 136.933 93 139.067 93 141.6V147.6Z" fill="#03B2E9"/>
<path d="M194.12 167.4C194.12 169.933 193.187 172.133 191.32 174C189.587 175.733 187.52 176.6 185.12 176.6H116.32C113.92 176.6 111.787 175.733 109.92 174C108.187 172.133 107.32 169.933 107.32 167.4V50.6C107.32 47.9333 108.187 45.7333 109.92 44C111.787 42.2666 113.92 41.4 116.32 41.4H121.92C124.454 41.4 126.587 42.2666 128.32 44C130.187 45.7333 131.12 47.9333 131.12 50.6V150.4C131.12 152.133 131.92 153 133.52 153H185.12C187.52 153 189.587 153.867 191.32 155.6C193.187 157.333 194.12 159.533 194.12 162.2V167.4Z" fill="black"/>
<path d="M295.2 167.618C295.2 170.151 294.267 172.351 292.4 174.218C290.667 175.951 288.6 176.818 286.2 176.818H217.4C215 176.818 212.867 175.951 211 174.218C209.267 172.351 208.4 170.151 208.4 167.618V50.8177C208.4 48.151 209.267 45.951 211 44.2177C212.867 42.4843 215 41.6177 217.4 41.6177H286.2C288.6 41.6177 290.667 42.4843 292.4 44.2177C294.267 45.951 295.2 48.151 295.2 50.8177V56.2177C295.2 58.751 294.267 60.951 292.4 62.8177C290.667 64.551 288.6 65.4177 286.2 65.4177H234.6C233 65.4177 232.2 66.2844 232.2 68.0177V94.6177C232.2 96.4844 233 97.4177 234.6 97.4177H279C281.667 97.4177 283.867 98.2843 285.6 100.018C287.333 101.751 288.2 103.884 288.2 106.418V112.018C288.2 114.551 287.333 116.751 285.6 118.618C283.867 120.351 281.667 121.218 279 121.218H234.6C233 121.218 232.2 122.018 232.2 123.618V150.618C232.2 152.351 233 153.218 234.6 153.218H286.2C288.6 153.218 290.667 154.084 292.4 155.818C294.267 157.551 295.2 159.751 295.2 162.418V167.618Z" fill="black"/>
<path d="M412 167.2C412.8 170.267 412.333 173.067 410.6 175.6C408.867 178 406.4 179.2 403.2 179.2H397.4C395.533 179.2 393.733 178.6 392 177.4C390.4 176.2 389.267 174.733 388.6 173L381 150C380.467 148.267 379.333 147.4 377.6 147.4H343.4C341.667 147.4 340.533 148.267 340 150L332.4 173C331.733 174.733 330.6 176.2 329 177.4C327.4 178.6 325.6 179.2 323.6 179.2H317.8C314.6 179.2 312.133 178 310.4 175.6C308.533 172.933 308.133 170.133 309.2 167.2L348 50.2C348.667 48.3333 349.733 46.8666 351.2 45.8C352.8 44.6 354.533 44 356.4 44H364.6C366.467 44 368.2 44.6 369.8 45.8C371.4 46.8666 372.467 48.3333 373 50.2L412 167.2ZM371.6 121.2L361.6 90.6C360.933 89.6666 360.2 89.6666 359.4 90.6L349.4 121.2C349.133 121.867 349.2 122.467 349.6 123C350 123.533 350.533 123.8 351.2 123.8H369.8C370.467 123.8 371 123.533 371.4 123C371.8 122.467 371.867 121.867 371.6 121.2Z" fill="black"/>
<path d="M517.8 167.4C517.8 169.933 516.867 172.133 515 174C513.267 175.733 511.133 176.6 508.6 176.6H502.8C499.2 176.6 496.533 175.067 494.8 172L452.2 98.2C451.933 97.6666 451.533 97.5333 451 97.7999C450.467 97.9333 450.2 98.2 450.2 98.6V167.4C450.2 169.933 449.267 172.133 447.4 174C445.667 175.733 443.6 176.6 441.2 176.6H435.6C433.067 176.6 430.867 175.733 429 174C427.267 172.133 426.4 169.933 426.4 167.4V50.6C426.4 47.9333 427.267 45.7333 429 44C430.867 42.2666 433.067 41.4 435.6 41.4H441.4C445 41.4 447.667 42.9333 449.4 46L492 119.8C492.4 120.333 492.8 120.533 493.2 120.4C493.733 120.267 494 119.933 494 119.4V50.6C494 47.9333 494.867 45.7333 496.6 44C498.467 42.2666 500.667 41.4 503.2 41.4H508.6C511.133 41.4 513.267 42.2666 515 44C516.867 45.7333 517.8 47.9333 517.8 50.6V167.4Z" fill="black"/>
<path d="M625.299 95.4039C624.062 97.6175 623.444 102.923 623.444 111.322V141.595C623.444 150.775 618.691 158.75 609.186 165.521C599.355 172.618 587.311 176.166 573.053 176.166C553.262 176.166 537.474 169.948 525.69 157.513C514.297 145.664 508.6 130.56 508.6 112.201C508.6 92.6696 514.394 76.3935 525.983 63.3726C538.939 48.7242 556.777 41.4 579.499 41.4C594.668 41.4 606.68 44.3296 615.534 50.189L605 69.1343L604 71L602 70L600 69.1343C593.62 66.7255 586.627 65.814 579.596 65.814C572.63 65.814 566.51 66.9208 561.237 69.1343C556.028 71.3479 551.601 74.5054 547.956 78.607C540.273 87.0054 536.432 98.1058 536.432 111.908C536.432 123.952 539.818 133.62 546.588 140.912C553.359 148.138 562.083 151.752 572.76 151.752C584.544 151.752 592.487 148.692 596.588 142.572C597.89 140.619 598.542 138.405 598.542 135.931V119.72H585.944C579.173 119.72 575.495 120.306 574.909 121.478L574.616 121.381L573.737 95.8922C575.56 96.4131 582.949 96.6735 595.905 96.6735H607.428C614.59 96.6735 620.449 96.1852 625.006 95.2086L625.299 95.4039Z" fill="#FF1E1E"/>
<path d="M634.301 41.7349C640.811 41.9953 644.75 42.1255 646.117 42.1255H653.148C656.599 42.1255 659.366 41.8651 661.449 41.3443L661.352 172.008H634.301V41.7349Z" fill="#FF1E1E"/>
<path d="M674.367 172.283C674.758 170.069 674.953 167.66 674.953 165.056V42.3999H694.484L746.242 123.845V49.0405C746.242 45.4598 745.917 43.2463 745.266 42.3999H771.633C771.307 45.0041 771.145 47.8687 771.145 50.9937V172.283H750.832L699.855 94.0602V172.283H674.367Z" fill="#FF1E1E"/>
<path d="M93 147.6C93 152.4 91.8 156.8 89.4 160.8C87 164.8 83.8 168 79.8 170.4C75.8 172.8 71.4 174 66.6 174H30.6C25.8 174 21.3333 172.8 17.2 170.4C13.2 168 10 164.8 7.6 160.8C5.2 156.8 4 152.4 4 147.6V65.3999C4 60.4666 5.2 55.9999 7.6 51.9999C10 47.9999 13.2 44.7999 17.2 42.3999C21.3333 39.9999 25.8 38.7999 30.6 38.7999H66.6C71.4 38.7999 75.8 39.9999 79.8 42.3999C83.8 44.7999 87 47.9999 89.4 51.9999C91.8 55.9999 93 60.4666 93 65.3999V70.7999C93 73.3333 92.1333 75.4666 90.4 77.1999C88.6667 78.9333 86.4667 79.7999 83.8 79.7999H78.4C75.8667 79.7999 73.6667 78.9333 71.8 77.1999C70.0667 75.4666 69.2 73.3333 69.2 70.7999V65.3999C69.2 63.5333 68.3333 62.5999 66.6 62.5999H30.6C28.8667 62.5999 28 63.5333 28 65.3999V147.6C28 148.267 28.2667 148.933 28.8 149.6C29.3333 150.133 29.9333 150.4 30.6 150.4H66.6C67.2667 150.4 67.8667 150.133 68.4 149.6C68.9333 148.933 69.2 148.267 69.2 147.6V141.6C69.2 139.067 70.0667 136.933 71.8 135.2C73.6667 133.333 75.8667 132.4 78.4 132.4H83.8C86.4667 132.4 88.6667 133.333 90.4 135.2C92.1333 136.933 93 139.067 93 141.6V147.6Z" stroke="black" stroke-width="8" mask="url(#path-1-outside-1_1_66)"/>
<path d="M194.12 167.4C194.12 169.933 193.187 172.133 191.32 174C189.587 175.733 187.52 176.6 185.12 176.6H116.32C113.92 176.6 111.787 175.733 109.92 174C108.187 172.133 107.32 169.933 107.32 167.4V50.6C107.32 47.9333 108.187 45.7333 109.92 44C111.787 42.2666 113.92 41.4 116.32 41.4H121.92C124.454 41.4 126.587 42.2666 128.32 44C130.187 45.7333 131.12 47.9333 131.12 50.6V150.4C131.12 152.133 131.92 153 133.52 153H185.12C187.52 153 189.587 153.867 191.32 155.6C193.187 157.333 194.12 159.533 194.12 162.2V167.4Z" stroke="black" stroke-width="8" mask="url(#path-1-outside-1_1_66)"/>
<path d="M295.2 167.618C295.2 170.151 294.267 172.351 292.4 174.218C290.667 175.951 288.6 176.818 286.2 176.818H217.4C215 176.818 212.867 175.951 211 174.218C209.267 172.351 208.4 170.151 208.4 167.618V50.8177C208.4 48.151 209.267 45.951 211 44.2177C212.867 42.4843 215 41.6177 217.4 41.6177H286.2C288.6 41.6177 290.667 42.4843 292.4 44.2177C294.267 45.951 295.2 48.151 295.2 50.8177V56.2177C295.2 58.751 294.267 60.951 292.4 62.8177C290.667 64.551 288.6 65.4177 286.2 65.4177H234.6C233 65.4177 232.2 66.2844 232.2 68.0177V94.6177C232.2 96.4844 233 97.4177 234.6 97.4177H279C281.667 97.4177 283.867 98.2843 285.6 100.018C287.333 101.751 288.2 103.884 288.2 106.418V112.018C288.2 114.551 287.333 116.751 285.6 118.618C283.867 120.351 281.667 121.218 279 121.218H234.6C233 121.218 232.2 122.018 232.2 123.618V150.618C232.2 152.351 233 153.218 234.6 153.218H286.2C288.6 153.218 290.667 154.084 292.4 155.818C294.267 157.551 295.2 159.751 295.2 162.418V167.618Z" stroke="black" stroke-width="8" mask="url(#path-1-outside-1_1_66)"/>
<path d="M412 167.2C412.8 170.267 412.333 173.067 410.6 175.6C408.867 178 406.4 179.2 403.2 179.2H397.4C395.533 179.2 393.733 178.6 392 177.4C390.4 176.2 389.267 174.733 388.6 173L381 150C380.467 148.267 379.333 147.4 377.6 147.4H343.4C341.667 147.4 340.533 148.267 340 150L332.4 173C331.733 174.733 330.6 176.2 329 177.4C327.4 178.6 325.6 179.2 323.6 179.2H317.8C314.6 179.2 312.133 178 310.4 175.6C308.533 172.933 308.133 170.133 309.2 167.2L348 50.2C348.667 48.3333 349.733 46.8666 351.2 45.8C352.8 44.6 354.533 44 356.4 44H364.6C366.467 44 368.2 44.6 369.8 45.8C371.4 46.8666 372.467 48.3333 373 50.2L412 167.2ZM371.6 121.2L361.6 90.6C360.933 89.6666 360.2 89.6666 359.4 90.6L349.4 121.2C349.133 121.867 349.2 122.467 349.6 123C350 123.533 350.533 123.8 351.2 123.8H369.8C370.467 123.8 371 123.533 371.4 123C371.8 122.467 371.867 121.867 371.6 121.2Z" stroke="black" stroke-width="8" mask="url(#path-1-outside-1_1_66)"/>
<path d="M517.8 167.4C517.8 169.933 516.867 172.133 515 174C513.267 175.733 511.133 176.6 508.6 176.6H502.8C499.2 176.6 496.533 175.067 494.8 172L452.2 98.2C451.933 97.6666 451.533 97.5333 451 97.7999C450.467 97.9333 450.2 98.2 450.2 98.6V167.4C450.2 169.933 449.267 172.133 447.4 174C445.667 175.733 443.6 176.6 441.2 176.6H435.6C433.067 176.6 430.867 175.733 429 174C427.267 172.133 426.4 169.933 426.4 167.4V50.6C426.4 47.9333 427.267 45.7333 429 44C430.867 42.2666 433.067 41.4 435.6 41.4H441.4C445 41.4 447.667 42.9333 449.4 46L492 119.8C492.4 120.333 492.8 120.533 493.2 120.4C493.733 120.267 494 119.933 494 119.4V50.6C494 47.9333 494.867 45.7333 496.6 44C498.467 42.2666 500.667 41.4 503.2 41.4H508.6C511.133 41.4 513.267 42.2666 515 44C516.867 45.7333 517.8 47.9333 517.8 50.6V167.4Z" stroke="black" stroke-width="8" mask="url(#path-1-outside-1_1_66)"/>
<path d="M625.299 95.4039C624.062 97.6175 623.444 102.923 623.444 111.322V141.595C623.444 150.775 618.691 158.75 609.186 165.521C599.355 172.618 587.311 176.166 573.053 176.166C553.262 176.166 537.474 169.948 525.69 157.513C514.297 145.664 508.6 130.56 508.6 112.201C508.6 92.6696 514.394 76.3935 525.983 63.3726C538.939 48.7242 556.777 41.4 579.499 41.4C594.668 41.4 606.68 44.3296 615.534 50.189L605 69.1343L604 71L602 70L600 69.1343C593.62 66.7255 586.627 65.814 579.596 65.814C572.63 65.814 566.51 66.9208 561.237 69.1343C556.028 71.3479 551.601 74.5054 547.956 78.607C540.273 87.0054 536.432 98.1058 536.432 111.908C536.432 123.952 539.818 133.62 546.588 140.912C553.359 148.138 562.083 151.752 572.76 151.752C584.544 151.752 592.487 148.692 596.588 142.572C597.89 140.619 598.542 138.405 598.542 135.931V119.72H585.944C579.173 119.72 575.495 120.306 574.909 121.478L574.616 121.381L573.737 95.8922C575.56 96.4131 582.949 96.6735 595.905 96.6735H607.428C614.59 96.6735 620.449 96.1852 625.006 95.2086L625.299 95.4039Z" stroke="black" stroke-width="8" mask="url(#path-1-outside-1_1_66)"/>
<path d="M634.301 41.7349C640.811 41.9953 644.75 42.1255 646.117 42.1255H653.148C656.599 42.1255 659.366 41.8651 661.449 41.3443L661.352 172.008H634.301V41.7349Z" stroke="black" stroke-width="8" mask="url(#path-1-outside-1_1_66)"/>
<path d="M674.367 172.283C674.758 170.069 674.953 167.66 674.953 165.056V42.3999H694.484L746.242 123.845V49.0405C746.242 45.4598 745.917 43.2463 745.266 42.3999H771.633C771.307 45.0041 771.145 47.8687 771.145 50.9937V172.283H750.832L699.855 94.0602V172.283H674.367Z" stroke="black" stroke-width="8" mask="url(#path-1-outside-1_1_66)"/>
<path fill-rule="evenodd" clip-rule="evenodd" d="M603.68 3.70734C602.023 2.91222 600.038 3.78085 599.66 5.57928C595.985 23.0687 604.532 41.4559 621.363 49.5335C638.194 57.611 657.886 52.776 669.23 38.9669C670.397 37.547 669.833 35.4554 668.176 34.6603L603.68 3.70734Z" fill="#2BD4DF"/>
<path fill-rule="evenodd" clip-rule="evenodd" d="M604.689 4.18124C597.305 20.0535 604.975 39.4066 621.951 47.5533C638.926 55.7 658.823 49.5767 666.586 33.8869L604.689 4.18124Z" fill="#96F9FF"/>
<path d="M619.09 48.2553L620.83 49.1066L603.841 83.8293L602.101 82.978L619.09 48.2553Z" fill="#2BD4DF"/>
<path d="M619.768 48.7369L621.508 49.5882L604.585 84.176L602.845 83.3246L619.768 48.7369Z" fill="#26BBC5"/>
<path fill-rule="evenodd" clip-rule="evenodd" d="M589.374 81.5669L614.17 91.5885C611.809 87.7684 608.085 84.5383 603.367 82.6314C598.649 80.7246 593.726 80.46 589.374 81.5669Z" fill="#2BD4DF"/>
<rect x="625.78" y="34.8834" width="14" height="14" rx="5" transform="rotate(7.78707 625.78 34.8834)" fill="white"/>
<rect x="640.505" y="41" width="8.29843" height="8.29843" rx="4.14921" transform="rotate(17.5707 640.505 41)" fill="white"/>
<rect x="640.265" y="36" width="4.18977" height="4.18977" rx="2.09488" transform="rotate(17.5707 640.265 36)" fill="white"/>
</svg>
